<?xml version="1.0" standalone="no"?>
<!DOCTYPE svg PUBLIC "-//W3C//DTD SVG 20010904//EN"
 "http://www.w3.org/TR/2001/REC-SVG-20010904/DTD/svg10.dtd">
<svg version="1.0" xmlns="http://www.w3.org/2000/svg"
 width="576.000000pt" height="662.000000pt" viewBox="0 0 576.000000 662.000000"
 preserveAspectRatio="xMidYMid meet">

<g transform="translate(0.000000,662.000000) scale(0.100000,-0.100000)"
fill="#000000" stroke="none">
<path d="M2839 6526 c-4 -4 -82 -13 -174 -20 -114 -9 -170 -17 -175 -26 -5 -7
-25 -15 -47 -17 -59 -6 -326 -90 -443 -140 -36 -15 -76 -38 -90 -50 -13 -13
-30 -23 -37 -23 -25 0 -63 -32 -63 -52 0 -14 -5 -18 -15 -14 -8 3 -14 0 -12
-6 1 -7 -7 -14 -18 -16 -46 -10 -186 -123 -235 -191 -14 -18 -49 -61 -79 -95
-29 -33 -64 -78 -77 -98 -13 -21 -50 -63 -83 -94 -74 -70 -151 -181 -161 -231
-5 -21 -22 -77 -39 -126 -41 -114 -68 -217 -91 -348 -16 -91 -18 -142 -14
-373 2 -148 7 -272 10 -277 3 -5 7 -28 10 -51 3 -24 11 -65 19 -93 8 -27 19
-79 25 -113 6 -35 17 -78 25 -95 7 -18 19 -47 25 -65 10 -26 15 -30 27 -21 11
10 17 8 29 -9 8 -12 22 -22 30 -22 22 0 14 -54 -8 -58 -9 -2 -46 15 -81 37
-35 23 -75 41 -88 41 -20 0 -18 -3 13 -18 21 -9 62 -41 92 -70 43 -41 60 -52
76 -47 25 8 26 -3 1 -29 -11 -12 -23 -36 -26 -55 -3 -19 -10 -42 -15 -52 -12
-22 -13 -59 -1 -59 5 0 11 -25 13 -56 3 -31 10 -59 16 -63 6 -4 7 -12 3 -19
-10 -16 -2 -62 13 -77 5 -6 20 -10 31 -7 24 4 44 -28 64 -105 7 -24 16 -43 21
-43 6 0 12 0 15 0 4 0 7 48 9 107 5 145 4 143 17 143 7 0 8 -11 4 -30 -7 -34
1 -39 21 -12 9 11 13 13 14 4 0 -28 20 1 20 30 0 23 4 29 15 24 8 -3 15 -1 15
4 0 5 7 7 15 4 11 -5 15 1 15 26 0 18 4 29 10 25 6 -3 10 -15 10 -26 0 -24 16
-25 23 0 3 13 -5 24 -25 36 -16 9 -27 19 -24 22 3 3 22 -5 41 -18 39 -26 48
-50 80 -209 64 -316 98 -349 420 -401 144 -24 168 -27 305 -33 52 -3 95 -6 95
-6 0 -1 9 -3 19 -5 11 -2 25 4 33 13 12 16 12 16 13 0 0 -10 7 -18 16 -18 14
0 14 3 4 15 -11 13 -5 15 46 17 33 1 69 1 82 0 12 0 20 3 17 9 -4 5 0 9 9 9 8
0 38 22 68 49 74 68 142 202 193 381 39 133 52 144 167 138 48 -2 90 -7 94
-10 3 -4 0 -17 -8 -30 -13 -23 -16 -39 -19 -116 -1 -29 4 -49 16 -62 15 -17
17 -30 11 -87 -4 -37 -12 -70 -18 -74 -7 -4 -7 -9 1 -14 9 -5 9 -10 1 -20 -6
-7 -8 -29 -5 -51 4 -22 8 -49 10 -61 2 -13 0 -23 -5 -23 -4 0 -2 -17 6 -37 7
-21 13 -46 14 -56 0 -22 38 -93 48 -89 4 1 10 -14 15 -35 6 -29 4 -39 -8 -46
-21 -11 -8 -29 16 -22 14 5 20 2 18 -7 -3 -28 1 -49 10 -43 5 3 12 1 16 -5 3
-5 -14 -30 -39 -56 -25 -25 -46 -53 -48 -62 -2 -9 -12 -18 -23 -20 -17 -3 -17
-1 -5 7 13 9 13 11 -1 11 -9 0 -22 -6 -28 -14 -9 -10 -20 -12 -42 -6 -16 5
-43 5 -60 0 -39 -11 -118 -10 -125 1 -3 5 -15 9 -28 9 -12 0 -26 4 -32 10 -22
22 -214 19 -214 -4 0 -29 22 -86 34 -86 15 0 56 -42 56 -58 0 -8 20 -12 58
-13 41 0 51 -3 37 -9 -17 -8 -16 -9 10 -11 17 -1 35 -3 41 -3 6 -1 18 -7 27
-14 10 -9 17 -10 22 -2 10 16 45 12 52 -6 3 -9 1 -19 -6 -23 -9 -6 -9 -24 -1
-77 11 -65 20 -95 20 -63 0 11 9 14 35 11 19 -2 38 -8 41 -13 8 -14 64 -10 70
5 6 16 45 9 57 -11 4 -7 16 -13 26 -13 15 0 17 -8 16 -47 -1 -28 -8 -50 -16
-54 -53 -28 -111 -48 -152 -54 -45 -6 -131 7 -167 25 -21 10 -236 12 -320 2
-77 -8 -136 -1 -133 16 2 7 -4 12 -12 12 -9 0 -20 11 -25 25 -11 30 -34 34
-25 5 8 -25 -3 -26 -21 -2 -8 10 -13 12 -14 5 0 -19 -28 -15 -34 5 -3 9 -4 4
-2 -11 3 -27 2 -28 -28 -21 -17 3 -28 3 -24 -1 4 -4 1 -20 -6 -34 -37 -71 -38
-76 -25 -122 15 -50 14 -80 -3 -91 -7 -4 -9 -10 -5 -15 5 -4 12 -1 17 7 5 8
12 12 15 8 7 -6 -14 -49 -29 -60 -5 -3 -11 -14 -12 -23 -1 -9 -5 -24 -9 -33
-5 -14 -7 -14 -16 -2 -8 13 -10 13 -19 0 -8 -13 -10 -13 -10 1 0 9 -10 21 -22
27 -21 10 -20 11 15 11 34 1 38 4 35 23 -4 29 -28 36 -28 8 0 -16 -4 -20 -16
-16 -9 3 -18 6 -21 6 -3 0 0 6 6 14 10 12 7 15 -17 21 -30 6 -62 27 -90 57
-10 11 -25 15 -41 12 -21 -5 -37 4 -81 46 -49 47 -55 50 -58 31 -2 -12 1 -28
7 -35 9 -10 7 -15 -5 -20 -19 -7 -42 8 -26 18 5 3 7 17 4 31 -4 24 -6 25 -27
11 -21 -14 -24 -14 -29 0 -3 9 -4 19 -1 24 3 4 -9 13 -25 19 -17 5 -30 17 -30
27 0 12 -6 15 -22 11 -19 -5 -26 1 -40 29 -10 19 -18 41 -18 49 0 8 -4 15 -10
15 -5 0 -10 -6 -10 -12 0 -9 -4 -8 -11 2 -8 11 -9 5 -4 -25 4 -22 11 -44 16
-50 24 -24 8 -44 -48 -60 -83 -24 -149 -61 -196 -108 -34 -34 -53 -69 -101
-192 -32 -82 -96 -228 -143 -324 l-85 -173 29 -30 c90 -95 347 -280 538 -386
174 -96 467 -215 588 -237 l39 -8 -28 44 c-15 24 -47 72 -71 106 -44 62 -100
144 -331 483 -67 99 -147 229 -176 288 -57 111 -106 246 -106 289 0 66 59 216
92 234 22 12 23 1 5 -44 -25 -59 5 -194 73 -328 27 -52 117 -187 140 -211 10
-9 34 -38 56 -65 37 -47 251 -263 329 -333 69 -62 234 -190 245 -190 5 0 10
-4 10 -8 0 -5 19 -19 43 -31 23 -12 83 -55 132 -96 50 -42 125 -92 171 -115
44 -21 98 -53 120 -71 l39 -31 108 6 c284 17 680 122 924 244 l82 42 -6 36
c-5 29 -3 36 8 32 8 -3 14 -10 14 -16 0 -6 6 -17 13 -23 20 -21 33 3 43 82 9
80 27 158 40 175 5 5 6 20 2 32 -4 18 -2 21 11 16 12 -5 16 -1 14 17 -2 13 -6
26 -10 29 -4 3 -9 30 -12 60 l-6 55 58 -112 c31 -61 72 -134 91 -162 l34 -50
44 30 c69 48 234 183 271 221 l33 35 -58 16 c-32 8 -78 18 -103 21 -25 4 -121
27 -215 52 -93 25 -179 47 -190 50 -11 2 -24 11 -30 20 -5 9 -24 36 -42 60
-17 23 -39 56 -47 72 -15 29 -15 31 32 93 145 194 248 424 323 719 17 69 33
139 36 155 2 17 13 64 23 105 10 41 26 119 36 173 13 70 23 101 35 108 32 17
69 100 80 178 11 87 19 107 70 176 46 62 66 113 73 189 4 46 13 71 39 110 52
76 77 131 102 223 13 46 33 102 44 124 30 58 27 90 -14 134 -45 50 -53 101
-30 203 9 42 18 100 20 127 2 28 6 74 9 103 4 34 2 52 -5 52 -5 0 -7 5 -3 12
4 7 7 55 5 108 -2 52 -3 104 -2 115 2 62 0 135 -6 175 -7 54 -7 60 -5 178 1
53 6 91 11 88 22 -14 3 76 -27 123 -17 28 -36 70 -42 92 -22 80 -94 213 -161
296 -19 23 -47 60 -64 82 -16 23 -84 96 -152 162 -68 66 -130 133 -137 148
-19 36 -79 77 -152 102 -63 22 -94 44 -94 66 0 20 -116 101 -155 109 -19 3
-52 23 -75 44 -51 47 -112 66 -166 51 -30 -8 -40 -8 -43 2 -6 21 -90 94 -114
100 -12 3 -48 14 -79 26 -34 12 -94 23 -145 27 -48 3 -106 9 -128 14 -58 14
-103 12 -128 -5 -19 -12 -26 -12 -47 0 -14 8 -35 19 -47 24 -29 13 -116 25
-124 17z m1024 -278 c21 -11 21 -11 2 -18 -22 -8 -48 7 -39 21 7 12 11 11 37
-3z m-2266 -314 c-3 -3 -12 -4 -19 -1 -8 3 -5 6 6 6 11 1 17 -2 13 -5z m262
-586 c13 1 29 -5 35 -14 11 -15 48 -21 166 -29 25 -1 45 -3 45 -5 0 -1 16 -3
35 -5 19 -1 36 -3 38 -4 2 0 -10 -13 -27 -27 -37 -31 -39 -39 -7 -39 15 0 22
5 19 13 -4 8 7 12 35 12 23 0 44 5 47 10 3 6 12 10 18 10 7 0 -1 -12 -18 -26
-25 -21 -27 -24 -8 -19 14 4 25 0 31 -11 9 -15 11 -16 31 -2 12 9 31 14 42 11
20 -6 52 14 44 27 -3 4 1 10 9 13 10 4 12 0 8 -15 -4 -18 -2 -20 14 -14 15 6
116 26 132 26 2 0 0 5 -3 10 -3 6 -2 10 4 10 5 0 11 -4 13 -9 2 -5 31 -3 67 4
42 9 71 11 82 4 12 -6 19 -5 22 4 3 9 9 9 26 0 11 -7 30 -13 40 -13 15 0 22
-9 27 -36 6 -32 9 -35 34 -32 17 3 26 0 24 -6 -5 -13 -97 -56 -119 -56 -8 0
-15 -7 -15 -15 0 -19 11 -19 52 -1 18 8 52 23 76 32 23 10 42 21 42 26 0 4 4
8 10 8 5 0 7 -6 4 -14 -7 -18 16 -62 25 -49 3 6 16 13 29 17 16 6 22 3 22 -8
0 -9 7 -16 15 -16 9 0 12 6 8 18 -4 10 4 6 21 -12 19 -20 31 -25 38 -18 8 8
17 7 32 -3 22 -15 106 -10 106 6 0 5 7 9 15 9 18 0 19 -14 5 -41 -10 -19 -1
-26 14 -11 4 4 61 7 127 7 99 0 119 -2 120 -15 1 -11 3 -10 6 3 5 18 33 24 33
7 0 -5 11 -10 25 -10 14 0 25 3 25 8 0 8 49 32 67 32 7 0 13 -4 13 -9 0 -5 21
-12 48 -15 26 -3 58 -8 72 -9 18 -3 26 -12 32 -35 5 -20 15 -32 25 -32 13 0
14 -3 5 -12 -17 -17 -15 -48 2 -48 8 0 16 5 18 11 6 19 36 -1 31 -21 -4 -15
-1 -18 16 -13 18 4 21 1 19 -18 -3 -20 1 -24 25 -24 18 1 26 -3 23 -12 -3 -7
1 -10 10 -6 12 4 15 0 13 -18 -5 -47 10 -84 40 -95 l27 -11 1 -99 c0 -57 -3
-88 -7 -74 -5 16 -7 -1 -8 -48 0 -40 4 -75 9 -78 5 -3 9 -13 9 -22 0 -13 -2
-14 -9 -4 -7 11 -10 10 -15 -3 -9 -25 -7 -63 4 -70 8 -5 8 -11 1 -19 -6 -7 -8
-16 -4 -19 3 -4 0 -7 -7 -7 -19 0 -60 -48 -62 -73 0 -12 2 -29 6 -38 4 -10 2
-20 -6 -25 -7 -4 -10 -4 -6 1 9 9 -9 35 -24 35 -5 0 -8 -8 -6 -17 2 -12 -4
-19 -20 -21 -12 -2 -20 -8 -17 -13 7 -10 -24 -1 -42 13 -14 11 -36 1 -28 -13
4 -5 -4 -9 -17 -9 -13 0 -34 -3 -47 -7 -17 -4 -22 -3 -17 5 4 7 3 12 -3 12 -5
0 -15 -8 -21 -17 -8 -13 -13 -14 -16 -5 -8 17 -24 15 -24 -4 0 -11 -6 -14 -20
-9 -13 4 -22 1 -26 -9 -4 -11 -11 -13 -23 -7 -11 6 -23 3 -40 -10 -13 -10 -34
-19 -47 -19 -15 0 -24 -6 -24 -16 0 -12 -7 -15 -27 -11 -26 5 -27 4 -8 -10 19
-14 19 -14 -7 -8 -21 5 -29 3 -33 -9 -3 -9 -7 -23 -10 -32 -4 -14 -6 -14 -21
0 -21 22 -45 20 -51 -4 -3 -11 -9 -17 -14 -14 -5 3 -9 -1 -9 -8 0 -8 -9 -22
-21 -31 -11 -10 -19 -23 -16 -30 4 -13 -51 -63 -60 -53 -10 10 -53 -47 -65
-88 -9 -30 -9 -41 0 -44 8 -2 8 -8 -1 -23 -10 -17 -9 -22 6 -33 16 -12 15 -14
-14 -20 -57 -11 -212 -6 -268 9 -31 7 -74 18 -96 24 l-40 9 45 -2 c25 -1 50
-5 56 -9 14 -8 26 6 43 48 10 25 9 36 -4 63 -9 17 -20 34 -26 37 -5 4 -9 17
-9 31 0 15 -6 24 -15 24 -8 0 -15 9 -15 20 0 12 -7 20 -17 20 -15 0 -16 2 -3
10 31 19 7 24 -109 19 -13 -1 -27 5 -32 12 -12 19 -4 22 21 9 16 -9 25 -9 33
-1 8 8 8 11 -2 11 -7 0 -10 4 -7 9 8 13 -29 20 -48 9 -19 -11 -137 -2 -146 10
-3 4 -29 9 -58 10 -29 1 -62 6 -71 12 -10 5 -21 7 -24 3 -4 -3 -23 -7 -44 -9
-37 -3 -38 -3 -13 11 l25 14 -30 1 c-44 2 -67 6 -94 14 -17 6 -22 5 -16 -4 5
-8 3 -11 -4 -9 -7 3 -12 9 -11 14 2 16 -32 22 -57 11 -17 -8 -22 -17 -19 -31
5 -19 4 -19 -9 -1 -7 10 -18 15 -23 12 -6 -3 -24 -3 -41 0 -27 6 -29 9 -19 22
22 27 -49 6 -75 -21 -12 -14 -32 -28 -45 -32 -15 -4 -21 -12 -18 -21 3 -8 0
-14 -6 -14 -13 0 -91 -51 -96 -62 -2 -5 -16 -8 -32 -8 -20 0 -29 6 -34 23 -5
19 -8 20 -17 7 -8 -11 -12 -12 -16 -3 -3 8 -14 11 -29 7 -14 -4 -24 -2 -24 4
0 6 10 12 22 14 26 4 37 29 11 26 -46 -4 -54 1 -47 29 6 23 4 25 -15 20 -22
-5 -38 7 -21 18 17 11 -27 48 -49 42 -14 -3 -21 0 -21 9 0 8 6 14 14 14 11 0
13 12 9 59 -7 70 2 111 22 111 11 0 13 8 9 33 -3 17 -5 42 -5 53 0 13 -7 24
-17 26 -14 4 -18 14 -16 44 1 21 3 44 5 49 2 6 0 38 -4 73 -6 44 -12 62 -22
62 -18 0 -18 8 -4 65 8 32 8 48 -1 65 -10 18 -9 24 1 31 11 7 10 9 -3 9 -10 0
-19 11 -23 31 -8 35 -5 39 24 42 13 1 21 8 21 19 0 9 5 20 10 23 8 5 7 11 -1
21 -8 10 -8 14 0 14 6 0 11 11 11 24 0 27 16 43 23 24 7 -21 18 -3 19 32 1 24
8 35 30 46 15 8 28 16 28 18 0 3 3 13 7 23 6 16 5 17 -12 3 -17 -14 -18 -13
-11 15 4 17 10 42 13 58 3 15 12 27 20 27 12 0 13 3 4 13 -12 15 3 37 25 37 7
0 14 10 16 21 2 12 12 27 22 33 11 6 29 19 40 29 13 11 27 15 40 10 12 -3 32
-6 45 -5z m486 -67 c-6 -4 -23 -12 -40 -15 -29 -7 -29 -7 -10 8 21 16 66 23
50 7z m530 -42 c10 -14 1 -21 -19 -13 -9 3 -13 10 -10 15 7 12 21 11 29 -2z
m-475 -1259 c0 -5 -2 -10 -4 -10 -3 0 -8 5 -11 10 -3 6 -1 10 4 10 6 0 11 -4
11 -10z m2453 -48 c-3 -12 -9 -22 -14 -22 -5 0 -3 11 3 25 13 30 20 28 11 -3z
m-3198 -32 c3 -5 1 -10 -4 -10 -6 0 -11 5 -11 10 0 6 2 10 4 10 3 0 8 -4 11
-10z m482 4 c-3 -3 -12 -4 -19 -1 -8 3 -5 6 6 6 11 1 17 -2 13 -5z m2637 -39
c-45 -33 -65 -40 -74 -25 -15 24 -6 34 41 46 48 12 63 2 33 -21z m-2839 -5
c19 -8 19 -9 -2 -9 -12 -1 -25 4 -28 9 -7 12 2 12 30 0z m-698 -26 c-3 -3 -12
-4 -19 -1 -8 3 -5 6 6 6 11 1 17 -2 13 -5z m847 -9 c-4 -8 -12 -15 -19 -15 -7
0 -15 -9 -18 -20 -5 -21 7 -28 18 -10 3 6 13 10 22 10 13 0 13 -3 3 -15 -11
-13 -8 -15 19 -15 19 0 30 4 26 10 -7 11 34 14 61 3 14 -5 6 -10 -30 -19 -31
-8 -57 -9 -72 -4 -14 6 -26 6 -29 0 -7 -11 -66 -13 -153 -4 -50 6 -58 9 -48
20 8 7 37 16 65 20 29 4 58 13 66 20 7 8 23 14 34 14 11 0 23 5 26 10 10 16
35 12 29 -5z m66 5 c-19 -13 -30 -13 -30 0 0 6 10 10 23 10 18 0 19 -2 7 -10z
m-163 -16 c-3 -3 -12 -4 -19 -1 -8 3 -5 6 6 6 11 1 17 -2 13 -5z m220 0 c-3
-3 -12 -4 -19 -1 -8 3 -5 6 6 6 11 1 17 -2 13 -5z m-872 -42 c-3 -3 -11 0 -18
7 -9 10 -8 11 6 5 10 -3 15 -9 12 -12z m495 -4 c-13 -5 -31 -7 -39 -5 -10 3
-8 5 6 6 12 0 25 6 28 11 4 6 11 7 17 4 7 -5 2 -11 -12 -16z m-112 -25 c-10
-2 -28 -2 -40 0 -13 2 -5 4 17 4 22 1 32 -1 23 -4z m-131 -9 c-3 -3 -12 -4
-19 -1 -8 3 -5 6 6 6 11 1 17 -2 13 -5z m680 0 c-3 -3 -12 -4 -19 -1 -8 3 -5
6 6 6 11 1 17 -2 13 -5z m1521 -11 c-10 -2 -28 -2 -40 0 -13 2 -5 4 17 4 22 1
32 -1 23 -4z m-1733 -33 c-16 -4 -66 -8 -110 -9 -101 -2 -214 -17 -248 -32
-15 -7 -29 -20 -32 -31 -4 -10 -11 -18 -16 -18 -16 0 -10 26 11 45 23 21 129
46 160 38 11 -3 20 0 20 6 0 8 38 11 123 10 78 -1 111 -4 92 -9z m200 -10
c-45 -11 -113 -11 -120 0 -4 6 22 10 72 9 57 -1 70 -3 48 -9z m-915 -22 c16
-13 41 -31 55 -41 15 -11 24 -21 21 -24 -7 -7 -116 67 -116 79 0 13 10 9 40
-14z m2298 -15 c-10 -2 -28 -2 -40 0 -13 2 -5 4 17 4 22 1 32 -1 23 -4z m131
-59 c-15 -18 -39 -18 -39 0 0 16 19 25 38 18 9 -3 10 -8 1 -18z m-1473 -5 c3
-6 -1 -18 -9 -27 -13 -13 -19 -13 -32 -2 -12 10 -13 16 -4 26 14 17 35 18 45
3z m-166 -39 c0 -27 22 -70 49 -94 12 -11 21 -22 21 -27 0 -11 -67 12 -87 30
-10 9 -30 22 -45 30 -28 14 -37 31 -18 31 6 0 10 7 10 15 0 16 27 34 53 35 11
0 17 -8 17 -20z m387 -24 c13 -11 23 -29 23 -41 0 -15 6 -21 23 -20 12 0 22
-4 22 -10 0 -5 -9 -9 -20 -7 -29 5 -57 4 -85 -1 -85 -17 -110 -19 -110 -9 0 6
8 16 18 21 18 10 34 35 52 84 9 25 12 26 32 15 12 -7 32 -22 45 -32z m1178
-62 c8 -4 13 -10 10 -14 -3 -4 -28 1 -57 12 -29 11 -65 18 -80 16 -28 -5 -39
6 -15 15 6 3 -1 4 -17 4 -16 -1 -31 4 -34 11 -3 10 4 12 31 8 25 -4 41 -1 51
10 9 8 16 12 16 7 0 -4 5 0 11 10 10 16 14 13 40 -28 16 -25 36 -48 44 -51z
m-917 43 c4 -20 -25 -34 -39 -20 -14 14 1 45 20 41 9 -2 17 -11 19 -21z
m-1121 -69 c6 -7 14 -30 18 -51 8 -43 18 -51 63 -53 21 -1 32 3 32 12 0 8 9
14 19 14 11 0 22 4 25 9 3 4 16 6 30 4 13 -3 27 0 30 6 5 8 13 8 27 1 10 -6
19 -8 19 -4 0 3 7 0 16 -7 22 -18 94 -20 101 -3 7 18 23 18 23 0 0 -19 42 -27
104 -21 26 3 53 2 59 -2 14 -9 87 -4 107 7 9 5 -2 8 -30 7 -34 -2 -45 2 -48
14 -3 19 37 34 52 19 4 -4 14 -7 20 -5 18 6 236 27 296 29 41 1 54 5 52 15 -2
10 5 12 23 9 25 -5 25 -5 9 19 -18 28 -12 42 11 23 8 -7 29 -20 47 -30 34 -18
42 -46 27 -89 -6 -15 -15 -21 -25 -17 -8 3 -12 2 -9 -4 3 -5 1 -19 -5 -31 -10
-17 -8 -24 10 -41 14 -13 19 -26 14 -40 -5 -17 -3 -20 10 -15 9 4 16 2 16 -3
0 -6 -4 -10 -10 -10 -5 0 -10 -7 -10 -16 0 -22 -39 -104 -67 -140 -13 -18 -40
-43 -61 -56 -69 -46 -139 -51 -549 -44 -24 0 -43 4 -43 8 0 5 -17 8 -37 7 -48
-1 -202 35 -245 57 -18 9 -43 28 -55 42 -47 54 -94 265 -92 405 1 55 2 58 8
25 4 -20 13 -43 18 -50z m1003 22 c0 -5 -12 -10 -26 -10 -14 0 -23 4 -19 10 3
6 15 10 26 10 10 0 19 -4 19 -10z m1253 3 c-7 -2 -19 -2 -25 0 -7 3 -2 5 12 5
14 0 19 -2 13 -5z m-163 -23 c0 -5 -5 -10 -11 -10 -5 0 -7 5 -4 10 3 6 8 10
11 10 2 0 4 -4 4 -10z m-44 -23 c3 -3 3 -11 -1 -17 -5 -8 -36 -11 -98 -9 l-90
4 -8 -27 c-9 -34 -2 -37 11 -5 7 17 9 18 9 5 1 -10 8 -18 16 -18 9 0 18 -7 21
-15 4 -8 12 -15 20 -15 8 0 14 -4 14 -8 0 -5 12 -15 26 -22 23 -13 24 -15 7
-22 -11 -5 -6 -6 14 -2 17 3 40 1 50 -4 52 -27 78 -32 198 -36 165 -6 240 3
261 32 8 12 22 22 30 22 17 0 68 48 77 73 4 9 20 20 37 24 17 3 35 14 41 25
13 24 55 17 81 -13 12 -14 24 -19 40 -14 20 5 21 4 6 -5 -10 -6 -18 -16 -18
-21 0 -6 5 -7 10 -4 7 4 9 -2 6 -17 -3 -12 -7 -43 -11 -67 -3 -24 -19 -78 -36
-122 -32 -83 -64 -119 -129 -147 -155 -65 -692 -83 -801 -27 -31 16 -66 62
-55 72 3 3 6 1 6 -5 0 -7 7 -12 15 -12 12 0 14 7 9 28 -14 54 -24 73 -48 82
-19 7 -25 17 -28 51 -3 34 0 43 15 47 10 2 16 10 14 16 -3 7 -1 32 3 56 7 37
5 47 -11 61 -23 20 -25 39 -3 39 14 0 14 3 4 15 -11 14 4 15 139 12 83 -2 154
-7 157 -10z m61 -13 c-3 -3 -12 -4 -19 -1 -8 3 -5 6 6 6 11 1 17 -2 13 -5z
m-1684 -19 c-3 -9 -8 -14 -10 -11 -3 3 -2 9 2 15 9 16 15 13 8 -4z m97 5 c0
-5 -7 -10 -16 -10 -8 0 -12 5 -9 10 3 6 10 10 16 10 5 0 9 -4 9 -10z m60 -9
c0 -10 -30 -24 -37 -17 -3 3 -2 9 2 15 8 13 35 15 35 2z m1160 -306 c0 -5 -5
-3 -10 5 -5 8 -10 20 -10 25 0 6 5 3 10 -5 5 -8 10 -19 10 -25z m34 -1 c3 -8
2 -12 -4 -9 -6 3 -10 10 -10 16 0 14 7 11 14 -7z m823 -150 c-3 -3 -12 -4 -19
-1 -8 3 -5 6 6 6 11 1 17 -2 13 -5z m-50 -10 c-3 -3 -12 -4 -19 -1 -8 3 -5 6
6 6 11 1 17 -2 13 -5z m-377 -80 c14 -4 68 -5 120 -4 168 5 194 3 233 -11 33
-12 50 -29 30 -29 -10 0 -10 -52 0 -67 5 -8 3 -13 -3 -13 -8 0 -10 -9 -6 -25
4 -14 2 -25 -3 -25 -5 0 -14 -21 -20 -46 -10 -39 -14 -44 -26 -34 -18 15 -17
16 -20 -36 -2 -29 -12 -50 -34 -75 -17 -18 -31 -42 -31 -52 0 -26 -18 -57 -34
-57 -8 0 -19 -13 -25 -30 -9 -27 -14 -30 -50 -30 -29 0 -41 -4 -41 -15 0 -15
-61 -32 -79 -21 -5 4 -12 -3 -16 -13 -5 -18 -15 -20 -81 -19 -54 0 -72 4 -65
11 18 18 13 47 -6 44 -10 -1 -23 -6 -29 -10 -6 -3 -14 -4 -18 0 -12 12 -6 22
17 26 19 4 18 4 -5 6 -21 1 -28 6 -28 20 0 11 -4 23 -10 26 -5 3 -7 29 -4 59
3 40 1 56 -11 66 -8 7 -15 29 -15 50 0 22 -10 56 -25 81 -16 28 -25 60 -25 87
0 23 -4 42 -10 42 -5 0 -10 5 -10 11 0 5 5 7 10 4 14 -8 13 38 -1 52 -8 8 -8
13 0 17 6 4 11 2 11 -4 0 -6 5 -8 10 -5 6 3 10 -2 10 -12 1 -16 3 -15 19 5 11
12 24 22 30 22 6 0 11 5 11 12 0 11 176 5 230 -8z m-73 -620 c-3 -3 -12 -4
-19 -1 -8 3 -5 6 6 6 11 1 17 -2 13 -5z m-1320 -364 c3 -8 7 -19 9 -25 5 -24
93 -105 113 -105 11 0 21 -5 21 -11 0 -6 -7 -9 -15 -5 -17 6 -18 4 -9 -18 8
-21 24 -20 39 1 10 14 16 15 27 5 8 -6 17 -9 20 -6 3 2 8 -2 11 -10 4 -11 -1
-14 -21 -13 -25 2 -27 -1 -27 -38 -1 -22 3 -45 8 -52 4 -6 3 -14 -3 -18 -19
-12 -11 -26 10 -15 17 9 20 8 20 -9 0 -15 9 -22 38 -27 20 -4 43 -15 50 -26
22 -30 78 -47 178 -54 52 -4 97 -11 100 -15 3 -5 -3 -9 -13 -9 -12 0 -19 -7
-19 -20 0 -13 7 -20 18 -20 10 0 18 5 18 10 0 19 15 10 32 -21 14 -24 21 -28
36 -20 12 6 23 6 33 0 8 -6 10 -12 4 -15 -50 -22 -60 -32 -61 -59 -2 -70 -4
-77 -21 -73 -10 2 -18 10 -18 18 0 22 -139 19 -161 -3 -4 -4 10 -8 32 -8 22
-1 30 -4 19 -6 -11 -3 -25 -9 -31 -14 -6 -5 -19 -7 -28 -3 -11 4 -16 1 -16
-11 0 -11 -5 -15 -15 -11 -8 3 -15 1 -15 -4 0 -19 -51 -10 -73 14 -17 18 -31
23 -59 21 -21 -2 -40 1 -44 6 -3 5 8 9 23 9 22 0 29 5 30 20 2 22 -25 28 -44
9 -6 -6 -27 -14 -48 -19 -32 -7 -38 -6 -42 10 -3 12 -13 19 -26 17 -14 -1 -22
5 -26 22 -5 17 -14 25 -34 27 l-28 3 23 -19 23 -19 -22 -1 c-26 0 -43 27 -43
67 0 15 -5 35 -10 43 -8 12 -10 9 -10 -12 0 -15 -4 -30 -10 -33 -6 -4 -10 21
-10 69 0 61 -3 77 -17 85 -12 6 -18 22 -18 48 0 25 -4 37 -12 36 -8 -2 -13 7
-13 21 0 13 6 27 13 30 6 3 -8 4 -33 3 -25 -2 -37 -2 -28 0 20 5 36 65 19 71
-17 6 -13 27 9 47 11 10 17 21 15 26 -3 4 -1 10 5 14 5 3 10 14 10 25 0 10 7
20 15 24 8 3 20 17 25 31 5 14 14 25 20 25 6 0 19 7 28 16 13 14 17 14 20 3 2
-8 6 -21 9 -29z m-727 -203 c0 -28 -2 -48 -5 -45 -8 8 -32 147 -27 153 11 11
32 -59 32 -108z m1124 96 c4 -4 15 -8 24 -8 10 0 16 -7 16 -18 -2 -13 1 -15
11 -7 9 8 15 8 20 0 8 -14 98 -13 129 2 19 8 32 8 48 0 18 -8 19 -11 6 -11
-10 -1 -18 -8 -18 -16 0 -13 -4 -14 -20 -5 -16 9 -18 8 -14 -5 5 -13 -8 -15
-89 -15 l-95 0 -7 29 c-4 17 -14 31 -27 34 -11 3 -17 10 -13 16 7 13 19 14 29
4z m-56 -58 c14 -5 15 -15 2 -35 -7 -12 -12 -12 -35 0 -21 11 -30 11 -45 2
-23 -14 -31 -5 -20 24 7 18 15 21 47 17 21 -2 44 -5 51 -8z m-1038 -132 c-11
-17 -11 -17 -6 0 3 10 6 24 7 30 0 9 2 9 5 0 3 -7 0 -20 -6 -30z m60 -111 c0
-9 9 -23 20 -30 11 -7 20 -19 20 -27 0 -8 11 -25 24 -38 12 -13 26 -30 29 -38
5 -12 7 -12 15 0 13 18 35 3 29 -20 -5 -20 9 -27 15 -7 3 7 10 8 17 3 11 -6
10 -10 -3 -17 -18 -10 -56 -2 -56 13 0 5 -7 9 -15 9 -8 0 -29 21 -47 48 -17
26 -38 53 -45 60 -7 7 -13 17 -13 22 0 5 -3 15 -6 24 -3 9 -1 16 5 16 6 0 11
-8 11 -18z m537 -34 c-3 -8 -6 -5 -6 6 -1 11 2 17 5 13 3 -3 4 -12 1 -19z
m-457 -38 c0 -5 -4 -10 -10 -10 -5 0 -10 5 -10 10 0 6 5 10 10 10 6 0 10 -4
10 -10z m1230 -136 c0 -16 -26 -19 -35 -4 -4 6 -4 18 -1 27 5 12 9 13 21 3 8
-7 15 -19 15 -26z m-1124 0 c-3 -8 -1 -14 3 -14 5 0 11 -6 14 -14 4 -10 -2
-13 -19 -12 -13 0 -24 5 -24 10 0 5 -8 15 -17 22 -10 7 -14 16 -9 21 5 4 11 2
13 -4 7 -18 23 -16 23 3 0 8 5 12 11 9 6 -4 8 -13 5 -21z m405 8 c-7 -2 -18 1
-23 6 -8 8 -4 9 13 5 13 -4 18 -8 10 -11z m749 4 c0 -3 -4 -8 -10 -11 -5 -3
-10 -1 -10 4 0 6 5 11 10 11 6 0 10 -2 10 -4z m1054 -72 c3 -8 2 -12 -4 -9 -6
3 -10 10 -10 16 0 14 7 11 14 -7z m-2124 -14 c0 -5 -7 -10 -16 -10 -8 0 -12 5
-9 10 3 6 10 10 16 10 5 0 9 -4 9 -10z m10 -45 c-16 -19 -30 -19 -30 -1 0 8 8
16 18 18 24 6 27 1 12 -17z m70 -27 c0 -5 -4 -8 -10 -8 -5 0 -10 10 -10 23 0
18 2 19 10 7 5 -8 10 -18 10 -22z m-33 16 c-3 -3 -12 -4 -19 -1 -8 3 -5 6 6 6
11 1 17 -2 13 -5z m-2 -30 c9 -9 14 -18 11 -21 -6 -6 -46 20 -46 29 0 13 18 9
35 -8z m42 -26 c-3 -8 -6 -5 -6 6 -1 11 2 17 5 13 3 -3 4 -12 1 -19z m63 -23
c0 -8 -4 -15 -8 -15 -5 0 -9 7 -9 15 0 8 4 15 9 15 4 0 8 -7 8 -15z m24 -74
c9 -12 8 -13 -4 -6 -35 20 -42 28 -28 36 8 5 15 3 17 -4 2 -7 9 -18 15 -26z
m46 -32 c0 -6 -4 -7 -10 -4 -5 3 -10 11 -10 16 0 6 5 7 10 4 6 -3 10 -11 10
-16z m35 -18 c-3 -6 -11 -11 -17 -11 -6 0 -6 6 2 15 14 17 26 13 15 -4z m61
-36 c9 -8 11 -15 6 -15 -5 0 -15 7 -22 15 -7 8 -9 15 -6 15 4 0 14 -7 22 -15z
m424 -275 c0 -5 -2 -10 -4 -10 -3 0 -8 5 -11 10 -3 6 -1 10 4 10 6 0 11 -4 11
-10z m240 -117 c0 -16 -6 -23 -19 -23 -11 0 -23 5 -26 10 -11 18 1 36 24 36
15 0 21 -7 21 -23z"/>
<path d="M4065 4710 c-3 -5 -1 -10 4 -10 6 0 11 5 11 10 0 6 -2 10 -4 10 -3 0
-8 -4 -11 -10z"/>
<path d="M4050 4500 c0 -5 5 -10 10 -10 6 0 10 5 10 10 0 6 -4 10 -10 10 -5 0
-10 -4 -10 -10z"/>
<path d="M2650 3990 c0 -5 5 -10 11 -10 5 0 7 5 4 10 -3 6 -8 10 -11 10 -2 0
-4 -4 -4 -10z"/>
<path d="M1710 3970 c0 -5 5 -10 10 -10 6 0 10 5 10 10 0 6 -4 10 -10 10 -5 0
-10 -4 -10 -10z"/>
<path d="M2320 3320 c0 -5 7 -10 15 -10 8 0 15 5 15 10 0 6 -7 10 -15 10 -8 0
-15 -4 -15 -10z"/>
<path d="M3470 2985 c7 -8 17 -15 22 -15 5 0 3 7 -6 15 -8 8 -18 15 -22 15 -3
0 -1 -7 6 -15z"/>
<path d="M2395 1500 c-3 -6 1 -7 9 -4 18 7 21 14 7 14 -6 0 -13 -4 -16 -10z"/>
<path d="M2340 1491 c0 -17 18 -21 24 -6 3 9 0 15 -9 15 -8 0 -15 -4 -15 -9z"/>
<path d="M2390 1447 c0 -17 5 -27 15 -27 19 0 19 9 0 34 -14 19 -15 19 -15 -7z"/>
<path d="M2391 1374 c0 -11 3 -14 6 -6 3 7 2 16 -1 19 -3 4 -6 -2 -5 -13z"/>
<path d="M2975 1330 c3 -5 8 -10 11 -10 2 0 4 5 4 10 0 6 -5 10 -11 10 -5 0
-7 -4 -4 -10z"/>
<path d="M3010 1314 c0 -8 5 -12 10 -9 6 4 8 11 5 16 -9 14 -15 11 -15 -7z"/>
<path d="M2965 1291 c-6 -11 9 -23 19 -14 9 9 7 23 -3 23 -6 0 -12 -4 -16 -9z"/>
<path d="M3018 1243 c7 -3 16 -2 19 1 4 3 -2 6 -13 5 -11 0 -14 -3 -6 -6z"/>
<path d="M2805 1190 c-3 -5 1 -10 10 -10 9 0 13 5 10 10 -3 6 -8 10 -10 10 -2
0 -7 -4 -10 -10z"/>
<path d="M973 3719 c4 -13 7 -27 7 -30 0 -7 50 -19 50 -12 0 14 -23 44 -42 54
-19 10 -20 9 -15 -12z"/>
<path d="M1381 2890 c1 -36 27 -112 28 -82 1 12 6 22 12 22 8 0 9 4 0 13 -6 8
-9 16 -7 18 3 2 -4 15 -14 29 l-20 25 1 -25z"/>
<path d="M2528 2873 c7 -3 16 -2 19 1 4 3 -2 6 -13 5 -11 0 -14 -3 -6 -6z"/>
<path d="M2795 2860 c4 -7 -3 -8 -21 -4 -25 6 -27 5 -22 -19 3 -16 0 -28 -8
-31 -8 -3 -14 -17 -14 -30 0 -14 -8 -29 -17 -35 -16 -9 -16 -11 2 -32 11 -12
14 -19 8 -15 -9 5 -13 0 -13 -13 0 -12 5 -20 12 -18 7 1 12 -6 13 -15 0 -25
19 -23 23 2 2 11 8 18 13 14 6 -3 13 3 16 15 3 11 10 18 16 14 5 -3 7 -1 3 5
-7 12 13 63 29 74 5 4 7 8 4 8 -4 0 -3 17 2 37 5 26 4 40 -4 45 -18 11 -49 10
-42 -2z"/>
<path d="M2721 2824 c0 -11 3 -14 6 -6 3 7 2 16 -1 19 -3 4 -6 -2 -5 -13z"/>
<path d="M1437 2775 c4 -22 6 -46 5 -52 -1 -7 -3 -20 -4 -28 -2 -18 -19 -20
-36 -3 -9 9 -15 9 -23 1 -6 -6 -19 -9 -28 -6 -12 3 -11 1 3 -11 11 -9 31 -16
45 -16 14 0 36 -3 49 -6 17 -5 22 -2 22 13 0 10 -6 25 -12 32 -10 11 -10 13 0
7 14 -9 15 -2 3 22 -5 9 -14 33 -20 52 l-10 35 6 -40z"/>
<path d="M1410 2738 c0 -16 4 -28 9 -28 18 0 20 17 6 36 -14 18 -14 18 -15 -8z"/>
<path d="M1457 2588 c8 -46 13 -48 13 -5 0 21 -4 37 -10 37 -5 0 -7 -14 -3
-32z"/>
<path d="M1581 2064 c0 -11 3 -14 6 -6 3 7 2 16 -1 19 -3 4 -6 -2 -5 -13z"/>
<path d="M4316 805 c4 -9 11 -14 16 -13 15 5 11 23 -6 26 -11 2 -14 -2 -10
-13z"/>
</g>
</svg>
