<?xml version="1.0" standalone="no"?>
<!DOCTYPE svg PUBLIC "-//W3C//DTD SVG 20010904//EN"
 "http://www.w3.org/TR/2001/REC-SVG-20010904/DTD/svg10.dtd">
<svg version="1.0" xmlns="http://www.w3.org/2000/svg"
 width="64.000000pt" height="64.000000pt" viewBox="0 0 64.000000 64.000000"
 preserveAspectRatio="xMidYMid meet">

<g transform="translate(0.000000,64.000000) scale(0.100000,-0.100000)"
fill="#000000" stroke="none">
<path d="M290 440 l0 -90 -104 0 c-60 0 -108 -4 -111 -10 -3 -6 -3 -19 0 -30
6 -18 15 -20 111 -20 l104 0 0 -85 c0 -88 4 -95 44 -79 13 5 16 22 16 85 l0
79 94 0 c86 0 95 2 101 20 11 34 -3 40 -101 40 l-94 0 0 84 c0 67 -3 85 -16
90 -41 16 -44 9 -44 -84z"/>
<path d="M193 500 c-24 -10 -43 -21 -43 -23 0 -2 25 -21 55 -41 l55 -36 0 60
c0 68 -3 70 -67 40z"/>
<path d="M380 460 l0 -60 49 32 c56 37 54 45 -11 73 l-38 15 0 -60z"/>
<path d="M120 441 c0 -12 79 -63 92 -59 5 2 -13 18 -41 35 -28 18 -51 28 -51
24z"/>
<path d="M447 419 c-26 -18 -46 -34 -43 -36 7 -7 96 47 96 58 0 12 1 13 -53
-22z"/>
<path d="M90 400 c-10 -19 -8 -20 32 -20 44 0 43 3 -4 30 -13 8 -20 6 -28 -10z"/>
<path d="M496 395 c-19 -14 -18 -15 12 -15 24 0 30 4 26 15 -7 18 -14 18 -38
0z"/>
<path d="M90 253 c1 -27 17 -31 45 -13 l30 20 -37 0 c-21 0 -38 -3 -38 -7z"/>
<path d="M176 229 c-27 -16 -46 -33 -43 -36 6 -5 107 54 107 63 0 10 -20 2
-64 -27z"/>
<path d="M425 248 c11 -6 32 -20 48 -30 15 -11 27 -15 27 -9 0 12 -62 51 -81
51 -8 0 -6 -5 6 -12z"/>
<path d="M495 246 c20 -14 35 -12 35 5 0 5 -12 9 -27 9 -26 0 -26 -1 -8 -14z"/>
<path d="M208 206 c-26 -17 -48 -34 -48 -38 0 -9 89 -42 96 -36 3 3 4 28 2 55
l-3 50 -47 -31z"/>
<path d="M380 185 l0 -55 38 15 c57 24 57 30 8 64 l-46 32 0 -56z"/>
</g>
</svg>
