<svg id="svg" version="1.1" xmlns="http://www.w3.org/2000/svg" xmlns:xlink="http://www.w3.org/1999/xlink" width="400" height="400" viewBox="0, 0, 400,400"><g id="svgg"><path id="path0" d="M190.143 71.236 C 188.195 71.801,188.212 71.606,188.000 96.515 C 187.827 116.834,187.718 120.081,187.200 120.409 C 186.831 120.642,167.803 120.797,137.800 120.811 C 95.192 120.832,88.797 120.912,87.400 121.442 C 86.520 121.775,85.170 122.232,84.400 122.457 C 80.197 123.685,73.647 130.317,72.606 134.400 C 72.466 134.950,71.932 135.881,71.421 136.470 L 70.490 137.540 62.345 137.711 C 53.618 137.893,49.097 138.436,46.822 139.575 C 46.040 139.966,44.874 140.413,44.232 140.568 C 43.589 140.723,42.620 141.198,42.078 141.625 C 41.536 142.051,40.816 142.400,40.480 142.400 C 40.143 142.400,39.582 142.677,39.234 143.015 C 38.885 143.354,37.306 144.606,35.724 145.798 C 29.354 150.599,25.009 156.906,22.359 165.200 L 21.400 168.200 21.400 208.600 L 21.400 249.000 22.529 252.200 C 23.775 255.732,24.998 258.472,26.012 260.000 C 26.376 260.550,27.198 261.810,27.837 262.800 C 31.791 268.922,42.012 276.459,47.696 277.444 C 48.413 277.569,49.720 277.958,50.600 278.308 C 51.851 278.807,54.233 278.983,61.532 279.116 L 70.864 279.285 71.635 280.543 C 72.060 281.234,72.567 282.370,72.762 283.067 C 73.735 286.536,78.633 291.435,83.600 293.907 L 86.600 295.400 97.000 295.510 C 109.318 295.639,109.372 295.647,109.015 297.117 C 108.821 297.915,107.074 302.047,106.241 303.680 C 106.218 303.724,100.766 303.859,94.125 303.980 L 82.051 304.200 80.825 305.375 C 80.151 306.021,79.600 306.764,79.600 307.026 C 79.600 307.288,79.348 307.711,79.039 307.967 C 78.731 308.223,78.360 308.906,78.214 309.485 C 78.069 310.063,77.602 310.980,77.175 311.522 C 76.749 312.064,76.400 312.784,76.400 313.122 C 76.400 313.460,76.160 314.021,75.866 314.369 C 75.572 314.716,75.092 315.630,74.800 316.400 C 74.508 317.170,74.049 318.070,73.781 318.400 C 73.514 318.730,73.159 319.450,72.992 320.000 C 72.826 320.550,72.355 321.429,71.945 321.954 C 70.249 324.126,71.231 327.823,73.760 328.785 C 74.955 329.239,123.439 329.383,126.120 328.940 C 128.671 328.518,129.200 326.928,129.200 319.678 C 129.200 314.418,129.285 313.647,129.931 313.062 C 130.605 312.452,135.489 312.400,192.035 312.400 L 253.408 312.400 253.924 313.228 C 254.301 313.831,254.412 315.701,254.334 320.138 C 254.213 327.041,254.537 328.021,257.200 328.791 C 258.727 329.232,307.389 329.382,309.539 328.952 C 311.526 328.555,313.265 324.694,312.048 323.380 C 311.855 323.171,311.486 322.339,311.228 321.532 C 310.970 320.725,310.498 319.848,310.180 319.583 C 309.861 319.318,309.600 318.714,309.600 318.240 C 309.600 317.766,309.285 316.937,308.900 316.399 C 308.515 315.860,307.120 313.260,305.800 310.622 C 302.285 303.594,303.293 304.000,289.343 304.000 L 278.005 304.000 276.803 302.340 C 276.141 301.427,275.600 300.457,275.600 300.184 C 275.600 299.912,275.274 299.287,274.876 298.795 C 274.431 298.245,274.216 297.472,274.317 296.783 L 274.481 295.665 285.541 295.533 C 296.060 295.406,296.689 295.356,298.426 294.500 C 299.431 294.005,300.442 293.600,300.674 293.600 C 301.980 293.600,308.547 287.403,309.440 285.327 C 309.741 284.627,310.171 283.942,310.394 283.804 C 310.618 283.666,311.005 282.739,311.255 281.745 C 311.861 279.339,312.339 279.200,320.012 279.200 L 326.372 279.200 327.783 277.961 L 329.195 276.722 329.297 248.861 L 329.400 221.000 353.039 220.800 C 378.997 220.580,377.568 220.730,378.662 218.113 C 379.319 216.540,379.429 200.372,378.794 198.560 C 377.822 195.785,378.363 195.843,352.966 195.783 C 340.408 195.754,329.923 195.600,329.666 195.441 C 329.319 195.226,329.200 188.250,329.200 168.002 C 329.200 152.399,329.043 140.439,328.831 139.882 C 328.163 138.126,325.914 137.600,319.068 137.600 C 312.181 137.600,311.893 137.502,311.218 134.917 C 310.976 133.991,310.600 133.124,310.383 132.990 C 310.166 132.855,309.736 132.142,309.427 131.404 C 308.260 128.611,301.724 123.025,299.039 122.525 C 298.357 122.398,297.305 121.835,296.700 121.272 L 295.600 120.250 295.600 97.105 C 295.600 71.606,295.648 72.113,293.152 71.243 C 291.559 70.688,192.060 70.681,190.143 71.236 M287.323 79.563 C 287.896 80.136,287.662 120.113,287.084 120.480 C 286.365 120.937,197.125 120.867,196.400 120.409 C 195.883 120.082,195.784 117.364,195.682 100.742 C 195.557 80.386,195.635 79.366,197.339 79.123 C 199.431 78.825,287.013 79.253,287.323 79.563 M214.200 85.107 C 201.697 91.609,200.992 106.309,212.803 114.233 C 222.815 120.949,237.209 112.505,237.198 99.923 C 237.187 88.184,224.277 79.867,214.200 85.107 M257.400 84.400 C 256.740 84.837,255.964 85.196,255.677 85.197 C 255.065 85.200,252.336 87.277,250.679 89.000 C 248.341 91.432,246.861 94.571,245.870 99.200 C 245.614 100.395,247.119 106.029,248.219 107.996 C 252.575 115.783,263.460 118.834,270.664 114.286 C 272.742 112.974,277.149 108.150,277.473 106.832 C 277.612 106.264,278.013 105.358,278.363 104.817 C 279.308 103.358,279.263 96.572,278.300 95.211 C 277.915 94.667,277.600 93.945,277.600 93.607 C 277.600 92.703,273.649 87.865,272.011 86.761 C 267.155 83.490,260.418 82.401,257.400 84.400 M224.585 92.473 C 230.292 94.370,230.938 103.536,225.621 107.184 C 222.287 109.472,215.697 108.371,214.026 105.248 C 209.586 96.952,215.723 89.528,224.585 92.473 M265.060 92.199 C 271.797 93.954,273.014 103.422,267.001 107.300 C 264.775 108.736,260.339 108.896,258.691 107.600 C 258.131 107.160,257.499 106.800,257.284 106.800 C 255.959 106.800,254.599 103.766,254.459 100.499 C 254.246 95.522,255.810 93.298,260.400 92.052 C 262.351 91.523,262.480 91.527,265.060 92.199 M236.667 129.555 L 296.734 129.800 297.951 130.700 C 298.620 131.195,299.310 131.600,299.485 131.600 C 300.082 131.600,301.897 133.818,302.954 135.838 L 304.009 137.856 303.904 208.828 L 303.800 279.800 302.490 281.860 C 301.002 284.201,299.271 285.654,296.744 286.685 C 295.090 287.359,289.671 287.402,192.153 287.500 L 89.305 287.603 86.934 286.702 C 83.283 285.313,80.929 282.951,80.038 279.780 C 79.362 277.378,79.428 138.587,80.105 136.745 C 81.498 132.958,84.438 130.480,88.400 129.753 C 91.359 129.211,137.023 129.150,236.667 129.555 M70.167 146.243 C 71.261 146.662,71.121 269.800,70.026 270.386 C 67.914 271.516,51.288 270.607,48.180 269.191 C 47.225 268.756,46.244 268.400,46.001 268.400 C 45.757 268.400,44.895 267.950,44.086 267.400 C 43.277 266.850,42.476 266.400,42.307 266.400 C 39.697 266.400,31.228 254.921,30.356 250.200 C 30.193 249.320,29.871 247.880,29.640 247.000 C 29.360 245.938,29.216 232.982,29.210 208.457 C 29.199 168.312,29.170 168.894,31.443 163.550 C 31.969 162.312,32.400 161.097,32.400 160.850 C 32.400 160.602,32.551 160.400,32.736 160.400 C 32.920 160.400,33.283 159.937,33.541 159.370 C 35.990 153.996,43.596 148.594,51.800 146.402 C 53.208 146.026,69.240 145.887,70.167 146.243 M320.400 146.392 C 320.929 146.726,321.008 154.081,321.070 208.183 L 321.141 269.596 320.281 270.198 C 319.044 271.065,314.110 271.023,313.131 270.138 C 312.269 269.357,311.958 148.374,312.814 146.774 C 313.274 145.915,319.175 145.617,320.400 146.392 M122.160 155.760 C 119.862 158.058,120.713 161.079,123.921 162.009 C 124.954 162.309,145.762 162.402,192.935 162.319 L 260.471 162.200 261.240 161.249 C 262.876 159.229,262.450 155.503,260.497 154.761 C 259.946 154.552,230.988 154.400,191.534 154.400 L 123.520 154.400 122.160 155.760 M122.796 171.865 C 120.329 173.941,120.317 176.479,122.767 178.177 L 124.243 179.200 191.622 179.199 C 256.835 179.197,259.040 179.173,260.232 178.446 C 263.141 176.672,262.878 172.932,259.726 171.263 C 259.075 170.918,241.713 170.800,191.457 170.800 L 124.061 170.800 122.796 171.865 M122.287 188.902 C 120.514 190.333,120.405 192.322,121.999 194.138 L 123.283 195.600 191.812 195.600 L 260.342 195.600 261.154 194.567 C 262.820 192.450,262.503 189.340,260.531 188.441 C 259.837 188.125,240.262 188.001,191.481 188.002 L 123.400 188.004 122.287 188.902 M121.999 205.862 C 119.917 208.233,120.843 211.130,123.960 211.996 C 126.187 212.614,258.191 212.499,259.950 211.877 C 262.490 210.979,263.050 207.650,261.029 205.469 L 260.038 204.400 191.661 204.400 L 123.283 204.400 121.999 205.862 M370.426 204.814 C 371.448 205.361,371.557 210.512,370.577 211.911 L 369.955 212.800 349.991 212.800 C 330.664 212.800,330.015 212.775,329.614 212.026 C 329.168 211.194,329.043 206.074,329.443 205.033 C 329.739 204.262,369.003 204.052,370.426 204.814 M122.778 221.816 C 120.336 223.616,120.404 226.585,122.926 228.300 L 124.250 229.200 191.625 229.194 C 244.514 229.189,259.215 229.081,260.000 228.691 C 261.674 227.858,262.607 225.460,261.939 223.705 C 260.759 220.604,267.063 220.862,191.578 220.829 L 124.155 220.800 122.778 221.816 M122.209 238.900 C 120.522 240.366,120.442 242.364,121.999 244.138 L 123.283 245.600 191.609 245.600 C 229.188 245.600,260.226 245.488,260.582 245.351 C 262.670 244.550,262.771 239.643,260.726 238.346 C 260.437 238.162,229.385 238.009,191.722 238.006 L 123.245 238.000 122.209 238.900 M129.009 254.312 C 123.633 254.419,123.378 254.463,122.353 255.445 C 120.310 257.402,120.552 260.173,122.890 261.598 C 124.617 262.651,257.667 262.884,260.169 261.839 C 262.609 260.819,263.021 257.665,260.996 255.500 L 259.968 254.400 254.084 254.373 C 231.254 254.270,133.523 254.222,129.009 254.312 M263.153 296.044 C 263.939 296.318,264.656 296.968,265.028 297.744 C 265.359 298.435,266.161 299.977,266.810 301.172 C 267.458 302.367,267.887 303.447,267.761 303.572 C 267.469 303.865,117.699 304.093,116.500 303.803 C 115.339 303.521,115.364 302.876,116.600 301.200 C 117.150 300.455,117.600 299.533,117.600 299.153 C 117.600 298.173,119.460 296.085,120.514 295.881 C 122.711 295.455,261.922 295.614,263.153 296.044 M120.026 312.814 C 120.814 313.235,121.194 318.507,120.557 320.167 C 120.341 320.732,118.275 320.800,101.357 320.800 L 82.400 320.800 82.400 319.849 C 82.400 319.326,82.658 318.683,82.974 318.421 C 83.290 318.159,83.664 317.419,83.805 316.777 C 83.946 316.135,84.239 315.500,84.455 315.366 C 84.672 315.232,85.016 314.685,85.219 314.150 C 85.422 313.616,85.996 313.015,86.494 312.815 C 87.792 312.293,119.052 312.293,120.026 312.814 M297.166 312.906 C 297.698 313.178,298.328 313.940,298.566 314.600 C 298.805 315.260,299.303 316.250,299.673 316.800 C 300.544 318.095,300.898 319.662,300.467 320.321 C 299.868 321.238,263.585 321.067,262.910 320.144 C 261.969 318.858,262.241 313.757,263.289 313.023 C 264.470 312.195,295.567 312.088,297.166 312.906 " stroke="none" fill="#0f0f0f" fill-rule="evenodd"></path><path id="path1" d="M0.000 200.000 L 0.000 400.000 200.000 400.000 L 400.000 400.000 400.000 200.000 L 400.000 0.000 200.000 0.000 L 0.000 0.000 0.000 200.000 M293.152 71.243 C 295.648 72.113,295.600 71.606,295.600 97.105 L 295.600 120.250 296.700 121.272 C 297.305 121.835,298.357 122.398,299.039 122.525 C 301.724 123.025,308.260 128.611,309.427 131.404 C 309.736 132.142,310.166 132.855,310.383 132.990 C 310.600 133.124,310.976 133.991,311.218 134.917 C 311.893 137.502,312.181 137.600,319.068 137.600 C 325.914 137.600,328.163 138.126,328.831 139.882 C 329.043 140.439,329.200 152.399,329.200 168.002 C 329.200 188.250,329.319 195.226,329.666 195.441 C 329.923 195.600,340.408 195.754,352.966 195.783 C 378.363 195.843,377.822 195.785,378.794 198.560 C 379.429 200.372,379.319 216.540,378.662 218.113 C 377.568 220.730,378.997 220.580,353.039 220.800 L 329.400 221.000 329.297 248.861 L 329.195 276.722 327.783 277.961 L 326.372 279.200 320.012 279.200 C 312.339 279.200,311.861 279.339,311.255 281.745 C 311.005 282.739,310.618 283.666,310.394 283.804 C 310.171 283.942,309.741 284.627,309.440 285.327 C 308.547 287.403,301.980 293.600,300.674 293.600 C 300.442 293.600,299.431 294.005,298.426 294.500 C 296.689 295.356,296.060 295.406,285.541 295.533 L 274.481 295.665 274.317 296.783 C 274.216 297.472,274.431 298.245,274.876 298.795 C 275.274 299.287,275.600 299.912,275.600 300.184 C 275.600 300.457,276.141 301.427,276.803 302.340 L 278.005 304.000 289.343 304.000 C 303.293 304.000,302.285 303.594,305.800 310.622 C 307.120 313.260,308.515 315.860,308.900 316.399 C 309.285 316.937,309.600 317.766,309.600 318.240 C 309.600 318.714,309.861 319.318,310.180 319.583 C 310.498 319.848,310.970 320.725,311.228 321.532 C 311.486 322.339,311.855 323.171,312.048 323.380 C 313.265 324.694,311.526 328.555,309.539 328.952 C 307.389 329.382,258.727 329.232,257.200 328.791 C 254.537 328.021,254.213 327.041,254.334 320.138 C 254.412 315.701,254.301 313.831,253.924 313.228 L 253.408 312.400 192.035 312.400 C 135.489 312.400,130.605 312.452,129.931 313.062 C 129.285 313.647,129.200 314.418,129.200 319.678 C 129.200 326.928,128.671 328.518,126.120 328.940 C 123.439 329.383,74.955 329.239,73.760 328.785 C 71.231 327.823,70.249 324.126,71.945 321.954 C 72.355 321.429,72.826 320.550,72.992 320.000 C 73.159 319.450,73.514 318.730,73.781 318.400 C 74.049 318.070,74.508 317.170,74.800 316.400 C 75.092 315.630,75.572 314.716,75.866 314.369 C 76.160 314.021,76.400 313.460,76.400 313.122 C 76.400 312.784,76.749 312.064,77.175 311.522 C 77.602 310.980,78.069 310.063,78.214 309.485 C 78.360 308.906,78.731 308.223,79.039 307.967 C 79.348 307.711,79.600 307.288,79.600 307.026 C 79.600 306.764,80.151 306.021,80.825 305.375 L 82.051 304.200 94.125 303.980 C 100.766 303.859,106.218 303.724,106.241 303.680 C 107.074 302.047,108.821 297.915,109.015 297.117 C 109.372 295.647,109.318 295.639,97.000 295.510 L 86.600 295.400 83.600 293.907 C 78.633 291.435,73.735 286.536,72.762 283.067 C 72.567 282.370,72.060 281.234,71.635 280.543 L 70.864 279.285 61.532 279.116 C 54.233 278.983,51.851 278.807,50.600 278.308 C 49.720 277.958,48.413 277.569,47.696 277.444 C 42.012 276.459,31.791 268.922,27.837 262.800 C 27.198 261.810,26.376 260.550,26.012 260.000 C 24.998 258.472,23.775 255.732,22.529 252.200 L 21.400 249.000 21.400 208.600 L 21.400 168.200 22.359 165.200 C 25.009 156.906,29.354 150.599,35.724 145.798 C 37.306 144.606,38.885 143.354,39.234 143.015 C 39.582 142.677,40.143 142.400,40.480 142.400 C 40.816 142.400,41.536 142.051,42.078 141.625 C 42.620 141.198,43.589 140.723,44.232 140.568 C 44.874 140.413,46.040 139.966,46.822 139.575 C 49.097 138.436,53.618 137.893,62.345 137.711 L 70.490 137.540 71.421 136.470 C 71.932 135.881,72.466 134.950,72.606 134.400 C 73.647 130.317,80.197 123.685,84.400 122.457 C 85.170 122.232,86.520 121.775,87.400 121.442 C 88.797 120.912,95.192 120.832,137.800 120.811 C 167.803 120.797,186.831 120.642,187.200 120.409 C 187.718 120.081,187.827 116.834,188.000 96.515 C 188.212 71.606,188.195 71.801,190.143 71.236 C 192.060 70.681,291.559 70.688,293.152 71.243 M197.339 79.123 C 195.635 79.366,195.557 80.386,195.682 100.742 C 195.784 117.364,195.883 120.082,196.400 120.409 C 197.125 120.867,286.365 120.937,287.084 120.480 C 287.662 120.113,287.896 80.136,287.323 79.563 C 287.013 79.253,199.431 78.825,197.339 79.123 M227.099 84.847 C 239.779 90.899,240.807 106.487,229.033 114.173 C 216.559 122.316,199.699 107.963,205.500 94.139 C 209.082 85.602,219.390 81.168,227.099 84.847 M268.400 84.714 C 272.593 86.804,277.600 91.644,277.600 93.607 C 277.600 93.945,277.915 94.667,278.300 95.211 C 279.263 96.572,279.308 103.358,278.363 104.817 C 278.013 105.358,277.612 106.264,277.473 106.832 C 277.149 108.150,272.742 112.974,270.664 114.286 C 263.460 118.834,252.575 115.783,248.219 107.996 C 247.119 106.029,245.614 100.395,245.870 99.200 C 246.861 94.571,248.341 91.432,250.679 89.000 C 252.336 87.277,255.065 85.200,255.677 85.197 C 255.964 85.196,256.740 84.837,257.400 84.400 C 259.378 83.090,265.492 83.265,268.400 84.714 M217.671 92.275 C 212.740 94.041,211.117 99.814,214.026 105.248 C 215.697 108.371,222.287 109.472,225.621 107.184 C 233.953 101.466,227.228 88.853,217.671 92.275 M260.400 92.052 C 255.810 93.298,254.246 95.522,254.459 100.499 C 254.599 103.766,255.959 106.800,257.284 106.800 C 257.499 106.800,258.131 107.160,258.691 107.600 C 260.339 108.896,264.775 108.736,267.001 107.300 C 275.026 102.123,269.586 89.558,260.400 92.052 M88.400 129.753 C 84.438 130.480,81.498 132.958,80.105 136.745 C 79.428 138.587,79.362 277.378,80.038 279.780 C 80.929 282.951,83.283 285.313,86.934 286.702 L 89.305 287.603 192.153 287.500 C 289.671 287.402,295.090 287.359,296.744 286.685 C 299.271 285.654,301.002 284.201,302.490 281.860 L 303.800 279.800 303.904 208.828 L 304.009 137.856 302.954 135.838 C 301.897 133.818,300.082 131.600,299.485 131.600 C 299.310 131.600,298.620 131.195,297.951 130.700 L 296.734 129.800 236.667 129.555 C 137.023 129.150,91.359 129.211,88.400 129.753 M51.800 146.402 C 43.596 148.594,35.990 153.996,33.541 159.370 C 33.283 159.937,32.920 160.400,32.736 160.400 C 32.551 160.400,32.400 160.602,32.400 160.850 C 32.400 161.097,31.969 162.312,31.443 163.550 C 29.170 168.894,29.199 168.312,29.210 208.457 C 29.216 232.982,29.360 245.938,29.640 247.000 C 29.871 247.880,30.193 249.320,30.356 250.200 C 31.228 254.921,39.697 266.400,42.307 266.400 C 42.476 266.400,43.277 266.850,44.086 267.400 C 44.895 267.950,45.757 268.400,46.001 268.400 C 46.244 268.400,47.225 268.756,48.180 269.191 C 51.288 270.607,67.914 271.516,70.026 270.386 C 71.121 269.800,71.261 146.662,70.167 146.243 C 69.240 145.887,53.208 146.026,51.800 146.402 M312.814 146.774 C 311.958 148.374,312.269 269.357,313.131 270.138 C 314.110 271.023,319.044 271.065,320.281 270.198 L 321.141 269.596 321.070 208.183 C 321.008 154.081,320.929 146.726,320.400 146.392 C 319.175 145.617,313.274 145.915,312.814 146.774 M260.497 154.761 C 262.450 155.503,262.876 159.229,261.240 161.249 L 260.471 162.200 192.935 162.319 C 145.762 162.402,124.954 162.309,123.921 162.009 C 120.713 161.079,119.862 158.058,122.160 155.760 L 123.520 154.400 191.534 154.400 C 230.988 154.400,259.946 154.552,260.497 154.761 M259.726 171.263 C 262.878 172.932,263.141 176.672,260.232 178.446 C 259.040 179.173,256.835 179.197,191.622 179.199 L 124.243 179.200 122.767 178.177 C 120.317 176.479,120.329 173.941,122.796 171.865 L 124.061 170.800 191.457 170.800 C 241.713 170.800,259.075 170.918,259.726 171.263 M260.531 188.441 C 262.503 189.340,262.820 192.450,261.154 194.567 L 260.342 195.600 191.812 195.600 L 123.283 195.600 121.999 194.138 C 120.405 192.322,120.514 190.333,122.287 188.902 L 123.400 188.004 191.481 188.002 C 240.262 188.001,259.837 188.125,260.531 188.441 M261.029 205.469 C 263.050 207.650,262.490 210.979,259.950 211.877 C 258.191 212.499,126.187 212.614,123.960 211.996 C 120.843 211.130,119.917 208.233,121.999 205.862 L 123.283 204.400 191.661 204.400 L 260.038 204.400 261.029 205.469 M329.443 205.033 C 329.043 206.074,329.168 211.194,329.614 212.026 C 330.015 212.775,330.664 212.800,349.991 212.800 L 369.955 212.800 370.577 211.911 C 371.557 210.512,371.448 205.361,370.426 204.814 C 369.003 204.052,329.739 204.262,329.443 205.033 M260.195 221.559 C 262.841 223.110,262.726 227.335,260.000 228.691 C 259.215 229.081,244.514 229.189,191.625 229.194 L 124.250 229.200 122.926 228.300 C 120.404 226.585,120.336 223.616,122.778 221.816 L 124.155 220.800 191.578 220.829 C 255.050 220.857,259.070 220.900,260.195 221.559 M260.726 238.346 C 262.771 239.643,262.670 244.550,260.582 245.351 C 260.226 245.488,229.188 245.600,191.609 245.600 L 123.283 245.600 121.999 244.138 C 120.442 242.364,120.522 240.366,122.209 238.900 L 123.245 238.000 191.722 238.006 C 229.385 238.009,260.437 238.162,260.726 238.346 M254.084 254.373 L 259.968 254.400 260.996 255.500 C 263.021 257.665,262.609 260.819,260.169 261.839 C 257.667 262.884,124.617 262.651,122.890 261.598 C 120.552 260.173,120.310 257.402,122.353 255.445 C 123.378 254.463,123.633 254.419,129.009 254.312 C 133.523 254.222,231.254 254.270,254.084 254.373 M120.514 295.881 C 119.460 296.085,117.600 298.173,117.600 299.153 C 117.600 299.533,117.150 300.455,116.600 301.200 C 115.364 302.876,115.339 303.521,116.500 303.803 C 117.699 304.093,267.469 303.865,267.761 303.572 C 267.887 303.447,267.458 302.367,266.810 301.172 C 266.161 299.977,265.359 298.435,265.028 297.744 C 264.656 296.968,263.939 296.318,263.153 296.044 C 261.922 295.614,122.711 295.455,120.514 295.881 M86.494 312.815 C 85.996 313.015,85.422 313.616,85.219 314.150 C 85.016 314.685,84.672 315.232,84.455 315.366 C 84.239 315.500,83.946 316.135,83.805 316.777 C 83.664 317.419,83.290 318.159,82.974 318.421 C 82.658 318.683,82.400 319.326,82.400 319.849 L 82.400 320.800 101.357 320.800 C 118.275 320.800,120.341 320.732,120.557 320.167 C 121.194 318.507,120.814 313.235,120.026 312.814 C 119.052 312.293,87.792 312.293,86.494 312.815 M263.289 313.023 C 262.241 313.757,261.969 318.858,262.910 320.144 C 263.585 321.067,299.868 321.238,300.467 320.321 C 300.898 319.662,300.544 318.095,299.673 316.800 C 299.303 316.250,298.805 315.260,298.566 314.600 C 297.786 312.439,297.565 312.412,280.189 312.406 C 266.339 312.401,264.058 312.484,263.289 313.023 " stroke="none" fill="#fbfbfb" fill-rule="evenodd"></path></g></svg>