<svg id="eguURGmieLC1" xmlns="http://www.w3.org/2000/svg" xmlns:xlink="http://www.w3.org/1999/xlink" viewBox="0 0 640 480" shape-rendering="geometricPrecision" text-rendering="geometricPrecision"><line id="eguURGmieLC2" x1="0" y1="75.967174" x2="0" y2="-75.967174" transform="matrix(1 0 0 1 151.65000000000001 241.96951949999999)" fill="none" stroke="rgb(63,87,135)" stroke-width="3" stroke-dashoffset="151.930000" stroke-dasharray="151.930000"/><line id="eguURGmieLC3" x1="0" y1="-75.970000" x2="0" y2="75.970000" transform="matrix(1 0 0 1 252.00468900000001 241.96951949999999)" fill="none" stroke="rgb(63,87,135)" stroke-width="3" stroke-dashoffset="151.930000" stroke-dasharray="151.930000"/><line id="eguURGmieLC4" x1="-15.474795" y1="21.101993" x2="15.474795" y2="-21.101993" transform="matrix(1 0 0 1 167.12778399999999 144.90035200000000)" fill="none" stroke="rgb(63,87,135)" stroke-width="3" stroke-dashoffset="52.340000" stroke-dasharray="52.340000"/><line id="eguURGmieLC5" x1="-15.005862" y1="0" x2="15.005862" y2="0" transform="matrix(1 0 0 1 197.60844050000000 123.79835900000000)" fill="none" stroke="rgb(63,87,135)" stroke-width="3" stroke-dashoffset="30.010000" stroke-dasharray="30.010000"/><line id="eguURGmieLC6" x1="-19.695194" y1="-21.101993" x2="19.695193" y2="21.101993" transform="matrix(1 0 0 1 232.30949550000003 144.90035200000000)" fill="none" stroke="rgb(63,87,135)" stroke-width="3" stroke-dashoffset="57.730000" stroke-dasharray="57.730000"/><line id="eguURGmieLC7" x1="7.740000" y1="0" x2="-7.740000" y2="0" transform="matrix(1 0 0 1 159.39038649999998 317.93669399999999)" fill="none" stroke="rgb(63,87,135)" stroke-width="3" stroke-dashoffset="15.470000" stroke-dasharray="15.470000"/><line id="eguURGmieLC8" x1="0" y1="-75.970000" x2="0" y2="75.970000" transform="matrix(1 0 0 1 167.12778399999999 241.96951949999999)" fill="none" stroke="rgb(63,87,135)" stroke-width="3" stroke-dashoffset="151.930000" stroke-dasharray="151.930000"/><line id="eguURGmieLC9" x1="7.740000" y1="-10.550000" x2="-7.740000" y2="10.550000" transform="matrix(1 0 0 1 174.86518150000001 155.45134849999999)" fill="none" stroke="rgb(63,87,135)" stroke-width="3" stroke-dashoffset="26.170000" stroke-dasharray="26.170000"/><line id="eguURGmieLC10" x1="15.010000" y1="0" x2="-15.010000" y2="0" transform="matrix(1 0 0 1 197.60844050000000 144.90035200000000)" fill="none" stroke="rgb(63,87,135)" stroke-width="3" stroke-dashoffset="30.020000" stroke-dasharray="30.010000"/><line id="eguURGmieLC11" x1="12.190000" y1="10.550000" x2="-12.190000" y2="-10.550000" transform="matrix(1 0 0 1 224.80656500000001 155.45134849999999)" fill="none" stroke="rgb(63,87,135)" stroke-width="3" stroke-dashoffset="32.250000" stroke-dasharray="32.250000"/><line id="eguURGmieLC12" x1="0" y1="75.970000" x2="0" y2="-75.970000" transform="matrix(1 0 0 1 236.99882800000000 241.96951949999999)" fill="none" stroke="rgb(63,87,135)" stroke-width="3" stroke-dashoffset="151.930000" stroke-dasharray="151.930000"/><line id="eguURGmieLC13" x1="7.500000" y1="0" x2="-7.500000" y2="0" transform="matrix(1 0 0 1 244.50175849999999 317.93669399999999)" fill="none" stroke="rgb(63,87,135)" stroke-width="3" stroke-dashoffset="15.010000" stroke-dasharray="15.010000"/><line id="eguURGmieLC14" x1="34.940000" y1="0" x2="-34.940000" y2="0" transform="matrix(1 0 0 1 202.06330600000001 241.96951949999999)" fill="none" stroke="rgb(63,87,135)" stroke-width="3" stroke-dashoffset="69.870000" stroke-dasharray="69.870000"/><line id="eguURGmieLC15" x1="-34.940000" y1="0" x2="34.940000" y2="0" transform="matrix(1 0 0 1 202.06330600000001 226.02579100000000)" fill="none" stroke="rgb(63,87,135)" stroke-width="3" stroke-dashoffset="69.870000" stroke-dasharray="69.870000"/><line id="eguURGmieLC16" x1="0.468933" y1="97.069167" x2="-0.468933" y2="-97.069167" transform="matrix(1 0 0 1 277.79601400000001 220.86752650000000)" fill="none" stroke="rgb(63,87,135)" stroke-width="3" stroke-dashoffset="194.140000" stroke-dasharray="194.140000"/><line id="eguURGmieLC17" x1="-6.565064" y1="0" x2="6.565065" y2="0" transform="matrix(1 0 0 1 283.89214549999997 123.79835900000000)" fill="none" stroke="rgb(63,87,135)" stroke-width="3" stroke-dashoffset="13.130000" stroke-dasharray="13.130000"/><line id="eguURGmieLC18" x1="0" y1="-51.113716" x2="0" y2="51.113716" transform="matrix(1 0 0 1 290.45720999999998 174.91207500000002)" fill="none" stroke="rgb(63,87,135)" stroke-width="3" stroke-dashoffset="102.230000" stroke-dasharray="102.230000"/><line id="eguURGmieLC19" x1="-40.328253" y1="51.113716" x2="40.328253" y2="-51.113716" transform="matrix(1 0 0 1 330.78546299999999 174.91207500000002)" fill="none" stroke="rgb(63,87,135)" stroke-width="3" stroke-dashoffset="130.210000" stroke-dasharray="130.210000"/><line id="eguURGmieLC20" x1="-7.033998" y1="0" x2="7.033998" y2="0" transform="matrix(1 0 0 1 378.14771400000001 123.79835900000000)" fill="none" stroke="rgb(63,87,135)" stroke-width="3" stroke-dashoffset="14.070000" stroke-dasharray="14.070000"/><line id="eguURGmieLC21" x1="41.266120" y1="-51.113716" x2="-40.061323" y2="54.489641" transform="matrix(1 0 0 1 343.91559200000000 174.91207500000002)" fill="none" stroke="rgb(63,87,135)" stroke-width="3" stroke-dashoffset="133.290000" stroke-dasharray="133.290000"/><line id="eguURGmieLC22" x1="-40.061323" y1="-44.053197" x2="41.167876" y2="45.955451" transform="matrix(1 0 0 1 343.91559200000000 271.98124250000001)" fill="none" stroke="rgb(63,87,135)" stroke-width="3" stroke-dashoffset="121.240000" stroke-dasharray="121.240000"/><line id="eguURGmieLC23" x1="7.033998" y1="0" x2="-7.033998" y2="0" transform="matrix(1 0 0 1 378.14771400000001 317.93669399999999)" fill="none" stroke="rgb(63,87,135)" stroke-width="3" stroke-dashoffset="14.070000" stroke-dasharray="14.070000"/><line id="eguURGmieLC24" x1="40.328253" y1="42.203986" x2="-40.328253" y2="-42.203986" transform="matrix(1 0 0 1 330.78546299999999 275.73270800000000)" fill="none" stroke="rgb(63,87,135)" stroke-width="3" stroke-dashoffset="116.750000" stroke-dasharray="116.750000"/><line id="eguURGmieLC25" x1="0" y1="-42.203986" x2="0" y2="42.203986" transform="matrix(1 0 0 1 290.45720999999998 275.73270800000000)" fill="none" stroke="rgb(63,87,135)" stroke-width="3" stroke-dashoffset="84.410000" stroke-dasharray="84.410000"/><line id="eguURGmieLC26" x1="6.096132" y1="0" x2="-6.096131" y2="0" transform="matrix(1 0 0 1 284.36107849999996 317.93669399999999)" fill="none" stroke="rgb(63,87,135)" stroke-width="3" stroke-dashoffset="12.190000" stroke-dasharray="12.190000"/></svg>