<svg id="Layer_1" enable-background="new 0 0 511.996 511.996" height="512" viewBox="0 0 511.996 511.996" width="512" xmlns="http://www.w3.org/2000/svg"><g><g><g><path d="m44.036 149.973 32.704 2.238c124.382 12.841 249.597 12.349 373.648-1.468 18.196.085 33.07 26.028 33.223 60.71s-14.474 64.969-32.67 64.884c-124.177-14.978-249.402-16.642-373.676-4.965l-40.451 3.952z" fill="#e9f2ff"/><path d="m118.001 155.944c.078 17.768-22.283 113.672-22.283 113.672s-51.746 5.741-58.463 5.709c-13.667-.064-29.6-27.444-29.754-62.381s13.176-63.234 29.197-64.138z" fill="#91a8dd"/><g><path d="m44.523 185.76c-5.514 0-15.253 6.79-12.395 48.459h47.554s.859-48.459-35.159-48.459z" fill="#e9f2ff"/><path d="m450.799 276.336c18.259.085 32.937-30.202 32.784-64.883-.044-10.031-1.33-17.271-3.57-25.693h-392.025-43.465s18.689 0 16.746 39.267c-1.736 35.076-18.392 47.173-24.456 50.297l39.016-3.959c124.705-11.675 250.363-10.009 374.97 4.971z" fill="#b5ceff"/></g><g><path d="m471.228 148.674c-124.481 13.815-270.764 15.579-395.576 2.737 0 0-14.993-1.449-20.003-1.774-12.816-.831-18.95-.831-18.95-.831s42.894-1.521 52.719 60.646h415.082c-1.13-33.006-15.651-60.695-33.272-60.778z" fill="#e9f2ff"/></g></g><g><g><path d="m318.096 485.72v-107.661c24.731-18.775 40.71-48.478 40.71-81.923v-1.333-24.697-16.023-103.049c0-11.242-9.113-20.355-20.355-20.355-11.242 0-20.355 9.113-20.355 20.355 0-11.242-9.113-20.355-20.355-20.355-11.242 0-20.355 9.113-20.355 20.355 0-11.242-9.113-20.355-20.355-20.355-11.242 0-20.355 9.113-20.355 20.355 0-11.242-9.113-20.355-20.355-20.355-11.242 0-20.355 9.113-20.355 20.355v113.222s-23.284.714-42.772 1.504v29.043 1.333c0 34.213 16.727 64.503 42.433 83.191v106.393z" fill="#ffba47"/></g><path d="m179.601 402.97h155v62.105h-155z" fill="#e9f2ff"/><path d="m284.601 402.97h50v54h-50z" fill="#deebff"/><path d="m179.601 456.97h155v47.5h-155z" fill="#f55745"/><path d="m284.601 456.97h50v47.5h-50z" fill="#d94e3e"/></g></g><g><path d="m500.652 163.245c-5.597-10.399-16.879-23.528-30.251-22.025-33.306 3.696-68.306 6.526-104.128 8.446-1.211-24.528-31.606-35.504-48.176-17.628-10.537-11.727-30.177-11.724-40.71 0-10.537-11.727-30.177-11.724-40.71 0-17.216-18.534-48.277-5.871-48.21 19.411-38.351-1.324-76.409-4.709-114.639-7.676-11.849-.92-26.249-3.4-38.159-2.392-20.547 1.739-35.839 32.311-35.666 71.597.076 17.402 9.491 75.805 38.794 69.689 35.599-3.478 71.171-6.884 106.898-8.841v22.311c0 33.878 15.792 66.085 42.433 86.927v12.407h-8.525c-4.142 0-7.5 3.358-7.5 7.5v54 47.5c0 4.142 3.358 7.5 7.5 7.5s7.5-3.358 7.5-7.5v-40h90.161c4.142 0 7.5-3.358 7.5-7.5s-3.358-7.5-7.5-7.5h-90.161v-39h140v39h-12.103c-4.142 0-7.5 3.358-7.5 7.5s3.358 7.5 7.5 7.5h12.101v40c0 4.142 3.358 7.5 7.5 7.5s7.5-3.358 7.5-7.5v-47.5-54c0-4.142-3.358-7.5-7.5-7.5h-9.005v-13.767c25.921-21.063 40.71-52.039 40.71-85.567v-20.408c27.89 2.011 56.017 4.711 83.735 8.055 26.895.251 39.409-38.249 40.886-66.665h13.573c4.692-.465 7.191-3.051 7.496-7.757-.591-17.245-4.62-33.623-11.344-46.117zm-485.651 49.666c-.149-33.939 12.512-55.621 21.825-56.579 14.401.574 26.672 9.953 34.068 21.928h-26.371c-23.842 0-20.862 41.632-19.877 55.997.27 3.934 3.54 6.987 7.482 6.987h19.339c-3.907 15.923-11.558 23.18-15.979 26.155-7.336-3.078-20.349-23.151-20.487-54.488zm29.483-19.592c10.988 3.075 9.702 25.047 9.194 32.924h-14.442c-1.025-27.352 4.423-32.34 5.248-32.924zm32.05 70.588-19.298 1.885c12.408-19.246 16.847-51.306 6.926-72.533h13.631c1.722 5.111 3.169 10.907 4.216 17.529.576 3.645 3.718 6.329 7.408 6.329h32.678c9.697 0 9.697-15 0-15h-26.42c-4.322-20.92-12.491-34.483-20.891-43.249l.232.016c35.728 3.673 73.879 6.217 113.449 7.572v35.661h-29.46c-9.697 0-9.697 15 0 15h29.46v39.873c-37.379 1.217-74.683 3.417-111.931 6.917zm274.773 32.229c0 30.056-13.758 57.739-37.746 75.949-1.868 1.418-2.965 3.628-2.965 5.974v17.412h-107.47v-16.143c0-2.4-1.148-4.655-3.09-6.066-24.635-17.909-39.343-46.741-39.343-77.125v-23.068c9.255-.427 18.512-.781 27.772-1.06v17.753c0 4.142 3.358 7.5 7.5 7.5s7.5-3.358 7.5-7.5v-138.728c.697-17.054 25.057-17.068 25.714.062-.014.015.003 81.792-.003 81.824 0 4.142 3.358 7.5 7.5 7.5s7.5-3.358 7.5-7.5c.006-.009 0-81.811-.003-81.824.655-17.14 25.067-17.13 25.717 0-.014.015.003 81.792-.003 81.824 0 4.142 3.358 7.5 7.5 7.5s7.5-3.358 7.5-7.5c.006-.009 0-81.811-.003-81.824.655-17.14 25.066-17.13 25.716 0-.014.015.003 81.792-.003 81.824 0 4.142 3.358 7.5 7.5 7.5s7.5-3.358 7.5-7.5c.006-.009 0-81.811-.003-81.824.64-17.092 24.997-17.157 25.714-.062-.001 0-.001 145.102-.001 145.102zm108.295-31.719c-2.819 2.819-5.598 4.302-8.267 4.413-28.15-3.387-56.715-6.115-85.028-8.14v-43.572h109.582c-1.232 19.813-7.56 38.574-16.287 47.299zm24.009-62.299c.006 0-117.297 0-117.304 0v-37.432c36.197-1.927 71.574-4.775 105.252-8.502 10.303.475 22.159 18.877 24.92 45.934z"/><path d="m393.327 63.993c4.142 0 7.5-3.358 7.5-7.5v-12.843c-.344-9.931-14.659-9.923-15 0v12.843c0 4.142 3.358 7.5 7.5 7.5z"/><path d="m393.327 123.948c4.142 0 7.5-3.358 7.5-7.5v-12.843c-.344-9.931-14.659-9.923-15 0v12.843c0 4.142 3.358 7.5 7.5 7.5z"/><path d="m416.883 87.549h12.843c9.931-.344 9.923-14.659 0-15h-12.843c-9.93.344-9.923 14.659 0 15z"/><path d="m356.928 87.549h12.843c9.931-.344 9.923-14.659 0-15h-12.843c-9.931.344-9.923 14.659 0 15z"/><path d="m88.695 334.072c-4.142 0-7.5 3.358-7.5 7.5v12.843c.344 9.931 14.659 9.923 15 0v-12.843c0-4.143-3.358-7.5-7.5-7.5z"/><path d="m88.695 394.027c-4.142 0-7.5 3.358-7.5 7.5v12.843c.344 9.931 14.659 9.923 15 0v-12.843c0-4.143-3.358-7.5-7.5-7.5z"/><path d="m125.094 370.47h-12.843c-9.931.344-9.923 14.659 0 15h12.843c9.931-.344 9.924-14.659 0-15z"/><path d="m65.139 370.47h-12.843c-9.931.344-9.923 14.659 0 15h12.843c9.931-.344 9.923-14.659 0-15z"/><path d="m171.968 27.813c4.142 0 7.5-3.358 7.5-7.5v-12.843c-.344-9.931-14.659-9.923-15 0v12.843c0 4.142 3.358 7.5 7.5 7.5z"/><path d="m171.968 87.768c4.142 0 7.5-3.358 7.5-7.5v-12.842c-.344-9.931-14.659-9.923-15 0v12.843c0 4.141 3.358 7.499 7.5 7.499z"/><path d="m195.524 51.369h12.842c9.931-.344 9.923-14.659 0-15h-12.842c-9.93.345-9.923 14.66 0 15z"/><path d="m135.569 51.369h12.843c9.931-.344 9.923-14.659 0-15h-12.843c-9.93.345-9.923 14.66 0 15z"/><path d="m423.305 387.072c-4.142 0-7.5 3.358-7.5 7.5v12.843c.344 9.931 14.659 9.923 15 0v-12.843c0-4.143-3.358-7.5-7.5-7.5z"/><path d="m423.305 447.027c-4.142 0-7.5 3.358-7.5 7.5v12.843c.344 9.931 14.659 9.923 15 0v-12.843c0-4.143-3.358-7.5-7.5-7.5z"/><path d="m459.704 423.47h-12.843c-9.931.344-9.923 14.659 0 15h12.843c9.93-.344 9.923-14.659 0-15z"/><path d="m399.749 423.47h-12.843c-9.931.344-9.923 14.659 0 15h12.843c9.93-.344 9.923-14.659 0-15z"/></g></g></svg>